<?xml version="1.0" encoding="UTF-8" standalone="no"?>
<!-- Created with Inkscape (http://www.inkscape.org/) -->

<svg
   width="100mm"
   height="100mm"
   viewBox="0 0 100 100"
   version="1.1"
   id="svg1"
   xml:space="preserve"
   inkscape:version="1.3.1 (91b66b0783, 2023-11-16)"
   sodipodi:docname="icon.svg"
   xmlns:inkscape="http://www.inkscape.org/namespaces/inkscape"
   xmlns:sodipodi="http://sodipodi.sourceforge.net/DTD/sodipodi-0.dtd"
   xmlns="http://www.w3.org/2000/svg"
   xmlns:svg="http://www.w3.org/2000/svg"><sodipodi:namedview
     id="namedview1"
     pagecolor="#ffffff"
     bordercolor="#cccccc"
     borderopacity="1"
     inkscape:showpageshadow="0"
     inkscape:pageopacity="1"
     inkscape:pagecheckerboard="0"
     inkscape:deskcolor="#d1d1d1"
     inkscape:document-units="mm"
     inkscape:zoom="0.72426347"
     inkscape:cx="455.6353"
     inkscape:cy="394.19357"
     inkscape:window-width="1920"
     inkscape:window-height="1009"
     inkscape:window-x="1912"
     inkscape:window-y="3"
     inkscape:window-maximized="1"
     inkscape:current-layer="layer1" /><defs
     id="defs1"><clipPath
       clipPathUnits="userSpaceOnUse"
       id="clipPath102"><path
         d="M 0,841.891 H 595.28 V 0 H 0 Z"
         transform="translate(-209.75391,-324.10251)"
         id="path102" /></clipPath><clipPath
       clipPathUnits="userSpaceOnUse"
       id="clipPath188"><path
         d="M 0,841.891 H 595.28 V 0 H 0 Z"
         transform="translate(-209.75391,-324.10251)"
         id="path188" /></clipPath><clipPath
       clipPathUnits="userSpaceOnUse"
       id="clipPath198"><path
         d="M 0,841.891 H 595.28 V 0 H 0 Z"
         transform="translate(-198.0322,-226.39751)"
         id="path198" /></clipPath></defs><g
     inkscape:label="Livello 1"
     inkscape:groupmode="layer"
     id="layer1"><g
       id="g1"
       style="fill:#005400;fill-opacity:1"
       transform="matrix(2.4097966,0,0,2.4097966,-38.653545,-76.998202)"><path
         id="path101"
         d="m 0,0 c -5.116,-0.318 -9.511,-1.364 -13.812,-3.25 -4.29,-1.916 -8.505,-4.738 -12.889,-9.293 -1.2,-1.221 -2.898,-3.148 -4.848,-5.667 -0.958,-1.273 -1.987,-2.684 -3,-4.29 l -0.593,-0.952 -0.67,-1.138 c -0.393,-0.737 -0.793,-1.485 -1.198,-2.245 -0.769,-1.508 -1.636,-2.986 -2.379,-4.63 -3.13,-6.451 -5.913,-13.903 -7.417,-21.991 -1.548,-8.05 -1.632,-16.823 0.471,-25.053 1.984,-8.253 6.355,-15.729 11.803,-21.228 5.434,-5.558 11.972,-9.076 18.018,-10.597 6.05,-1.607 11.647,-0.942 15.259,0.381 0.889,0.371 1.721,0.7 2.363,1.017 0.583,0.334 1.08,0.618 1.483,0.846 0.799,0.463 1.225,0.709 1.225,0.709 0,0 0.252,0.147 0.736,0.426 0.503,0.255 1.141,0.753 1.993,1.369 0.827,0.639 1.934,1.332 3.04,2.317 1.083,1.003 2.413,2.073 3.7,3.41 5.182,5.3 11.36,13.702 15.284,24.404 1.09,2.632 1.844,5.453 2.7,8.298 0.632,2.9 1.394,5.832 1.732,8.869 0.525,3.011 0.611,6.098 0.814,9.173 -0.061,3.086 0.009,6.177 -0.399,9.228 -0.192,3.067 -0.875,6.049 -1.406,9 -0.694,2.962 -1.571,5.887 -2.804,8.664 -1.255,2.771 -2.836,5.402 -4.824,7.676 -1.977,2.276 -4.376,4.161 -6.941,5.443 -5.045,2.49 -9.726,2.542 -13.073,2.134 -3.415,-0.409 -5.751,-1.334 -7.33,-1.966 -3.171,-1.377 -5.76,-3.173 -7.799,-5.457 -1.011,-1.149 -1.889,-2.454 -2.496,-4.016 -0.336,-0.77 -0.438,-1.612 -0.598,-2.394 -0.058,-0.982 -0.07,-1.933 0.229,-2.87 0.488,-1.837 2.031,-3.284 3.482,-3.895 1.399,-0.615 2.696,-0.748 3.939,-0.77 2.489,-0.033 4.841,0.472 7.309,1.177 -2.5,0.524 -4.766,1.153 -6.627,2.038 -0.925,0.425 -1.756,0.943 -2.22,1.477 -0.451,0.462 -0.361,0.859 -0.315,1.187 0.044,0.149 0.151,0.318 0.235,0.45 0.208,0.28 0.28,0.585 0.511,0.831 0.384,0.517 0.948,1.135 1.67,1.737 1.449,1.21 3.375,2.384 5.683,3.353 1.146,0.442 2.868,1.113 5.264,1.384 2.37,0.285 5.452,0.197 8.634,-1.379 3.279,-1.603 6.171,-4.919 8.132,-9.324 0.977,-2.204 1.718,-4.65 2.319,-7.21 0.46,-2.638 1.091,-5.291 1.254,-8.041 0.375,-2.725 0.295,-5.506 0.368,-8.273 -0.198,-2.765 -0.253,-5.543 -0.737,-8.257 -0.293,-2.739 -0.995,-5.383 -1.553,-8.005 -0.779,-2.566 -1.448,-5.12 -2.436,-7.49 -0.825,-2.432 -1.988,-4.641 -2.968,-6.832 -1.194,-2.065 -2.184,-4.163 -3.456,-5.932 -0.606,-0.904 -1.172,-1.804 -1.761,-2.643 -0.631,-0.806 -1.244,-1.587 -1.834,-2.343 -1.121,-1.568 -2.447,-2.742 -3.503,-3.963 -1.113,-1.159 -2.243,-2.05 -3.162,-2.92 -0.938,-0.845 -1.857,-1.397 -2.546,-1.941 -0.707,-0.513 -1.239,-0.945 -1.647,-1.139 -0.393,-0.226 -0.599,-0.342 -0.599,-0.342 0,0 -0.345,-0.199 -0.997,-0.574 -0.325,-0.188 -0.726,-0.42 -1.199,-0.694 -0.451,-0.221 -0.937,-0.391 -1.494,-0.644 -2.266,-0.805 -6.077,-1.38 -10.727,-0.147 -4.613,1.158 -9.937,3.964 -14.386,8.539 -4.465,4.523 -8.11,10.69 -9.776,17.663 -1.772,6.941 -1.741,14.532 -0.353,21.716 1.336,7.204 3.862,14.032 6.771,20.027 0.68,1.515 1.531,2.962 2.257,4.39 0.742,1.445 1.474,2.78 2.132,3.776 0.868,1.381 1.781,2.637 2.622,3.765 1.72,2.233 3.218,3.96 4.273,5.047 3.844,4.068 7.073,7.024 10.275,9.799 C -7.566,-5.331 -4.383,-2.691 0,0"
         style="fill:#005400;fill-opacity:1;fill-rule:nonzero;stroke:none"
         transform="matrix(0.35277776,0,0,-0.35277776,34.640477,33.072915)"
         clip-path="url(#clipPath102)" /><path
         id="path187"
         d="m 0,0 c -1.517,-0.139 -2.941,-0.289 -4.327,-0.476 -1.35,-0.279 -2.657,-0.607 -3.996,-0.992 -1.306,-0.449 -2.611,-1.016 -4.019,-1.659 -1.329,-0.765 -2.817,-1.537 -4.307,-2.652 -0.8,-0.61 -2.065,-1.45 -3.471,-2.688 -0.712,-0.606 -1.521,-1.243 -2.305,-2.012 l -1.021,-0.96 c -0.439,-0.405 -0.87,-0.823 -1.28,-1.266 -0.834,-0.871 -1.701,-1.739 -2.502,-2.689 -1.661,-1.847 -3.215,-3.873 -4.72,-6.015 -1.508,-2.099 -2.894,-4.571 -4.073,-6.896 -1.288,-2.32 -2.423,-4.808 -3.57,-7.335 -2.186,-5.098 -4.092,-10.522 -5.327,-16.233 -1.238,-5.704 -1.786,-11.705 -1.307,-17.694 0.469,-5.984 1.986,-11.934 4.547,-17.36 5.2,-10.811 14.824,-19.224 25.636,-21.926 5.344,-1.383 11.112,-1.206 15.952,1.063 4.461,2.269 8.134,5.039 11.169,7.941 6.067,5.807 9.667,11.72 11.885,15.882 1.214,2.04 1.851,3.788 2.422,4.908 0.526,1.145 0.802,1.75 0.802,1.75 0,0 0.238,0.623 0.683,1.799 0.406,1.189 1.198,2.872 1.811,5.158 1.499,4.479 3.004,11.169 3.453,19.422 0.24,4.127 0.028,8.64 -0.532,13.407 -0.374,2.371 -0.814,4.796 -1.364,7.29 -0.6,2.496 -1.449,5.024 -2.541,7.541 -1.149,2.495 -2.613,4.971 -4.563,7.191 -1.946,2.208 -4.393,4.168 -7.249,5.411 -5.749,2.562 -12.486,2.157 -18.184,-0.233 -2.862,-1.228 -5.594,-2.856 -7.887,-5.288 -1.125,-1.197 -2.208,-2.737 -2.753,-4.577 -0.25,-0.923 -0.462,-1.961 -0.26,-3.155 0.175,-1.175 0.802,-2.353 1.599,-3.145 1.636,-1.606 3.401,-2.086 4.993,-2.487 1.61,-0.351 3.168,-0.495 4.697,-0.546 1.53,-0.051 3.029,-0.007 4.527,0.102 1.529,0.067 3,0.448 4.425,0.696 1.441,0.283 2.876,0.565 4.306,0.843 1.379,0.404 2.753,0.805 4.118,1.205 1.354,0.421 2.742,0.753 4.05,1.243 1.309,0.485 2.612,0.968 3.904,1.451 1.288,0.491 2.587,0.931 3.835,1.456 1.241,0.544 2.471,1.086 3.69,1.619 1.217,0.536 2.425,1.069 3.619,1.594 0.599,0.265 1.167,0.58 1.748,0.863 l 1.481,0.748 c 2.128,1.1 4.109,2.017 5.691,2.939 1.587,0.918 2.866,1.658 3.715,2.151 6.25,3.688 9.252,6.888 12.923,11.783 -5.604,-2.628 -9.174,-4.242 -15.275,-7.77 -0.827,-0.471 -2.069,-1.181 -3.607,-2.061 -1.535,-0.89 -3.467,-1.776 -5.533,-2.845 -1.033,-0.517 -2.079,-1.038 -3.135,-1.565 -1.161,-0.509 -2.332,-1.026 -3.514,-1.545 -1.185,-0.521 -2.377,-1.044 -3.582,-1.574 -1.21,-0.507 -2.462,-0.931 -3.706,-1.405 -1.247,-0.464 -2.502,-0.931 -3.767,-1.402 -1.263,-0.472 -2.57,-0.78 -3.866,-1.183 -1.299,-0.383 -2.607,-0.767 -3.919,-1.152 -1.323,-0.258 -2.651,-0.516 -3.984,-0.774 -1.355,-0.236 -2.645,-0.589 -3.966,-0.641 -1.341,-0.097 -2.697,-0.138 -4.023,-0.093 -1.327,0.042 -2.631,0.175 -3.822,0.436 -1.168,0.254 -2.256,0.72 -2.664,1.181 -0.212,0.226 -0.281,0.375 -0.33,0.62 -0.063,0.231 0.007,0.645 0.128,1.096 0.277,0.924 0.858,1.811 1.685,2.7 1.639,1.76 3.907,3.16 6.262,4.159 4.746,1.988 10.139,2.227 14.483,0.28 4.39,-1.923 7.485,-5.934 9.451,-10.252 0.949,-2.201 1.717,-4.454 2.264,-6.732 0.503,-2.295 0.92,-4.587 1.274,-6.797 0.52,-4.458 0.725,-8.685 0.499,-12.559 -0.422,-7.747 -1.827,-14.049 -3.24,-18.259 -0.57,-2.154 -1.322,-3.733 -1.702,-4.851 -0.416,-1.107 -0.638,-1.694 -0.638,-1.694 0,0 -0.26,-0.566 -0.755,-1.638 -0.539,-1.049 -1.133,-2.7 -2.272,-4.603 -2.069,-3.896 -5.466,-9.429 -11.012,-14.723 -2.751,-2.641 -6.125,-5.142 -9.943,-7.094 -3.602,-1.694 -8.26,-1.945 -12.825,-0.75 -9.236,2.286 -17.916,9.74 -22.548,19.421 -2.289,4.865 -3.664,10.228 -4.094,15.692 -0.44,5.466 0.06,11.015 1.219,16.353 1.156,5.344 2.957,10.479 5.039,15.336 1.096,2.409 2.173,4.784 3.436,7.054 1.2,2.351 2.337,4.383 3.764,6.385 1.392,1.981 2.838,3.871 4.386,5.588 0.742,0.887 1.55,1.69 2.323,2.502 0.383,0.414 0.781,0.8 1.189,1.174 l 0.947,0.891 c 0.725,0.719 1.472,1.306 2.129,1.868 1.299,1.152 2.46,1.926 3.192,2.499 1.362,1.046 2.666,1.836 3.791,2.719 1.199,0.76 2.267,1.543 3.321,2.304 1.086,0.695 2.129,1.435 3.217,2.225 1.137,0.728 2.314,1.484 3.6,2.307"
         style="fill:#005400;fill-opacity:1;fill-rule:nonzero;stroke:none"
         transform="matrix(0.35277776,0,0,-0.35277776,34.640477,33.072915)"
         clip-path="url(#clipPath188)" /><path
         id="path197"
         d="M 0,0 C -36.5,10 -17,53 -17,53"
         style="fill:#005400;fill-opacity:1;fill-rule:nonzero;stroke:none"
         transform="matrix(0.35277776,0,0,-0.35277776,30.50532,67.541066)"
         clip-path="url(#clipPath198)" /></g></g></svg>
